<svg width="145" height="90" viewBox="0 0 145 90" fill="none" xmlns="http://www.w3.org/2000/svg">
<path d="M66 82.5C86.7107 82.5 103.5 65.7107 103.5 45C103.5 24.2893 86.7107 7.5 66 7.5C45.2893 7.5 28.5 24.2893 28.5 45C28.5 65.7107 45.2893 82.5 66 82.5Z" stroke="white" stroke-opacity="0.5" stroke-width="4" stroke-linecap="round" stroke-linejoin="round"/>
<path d="M76.2079 30.9974C78.04 30.3867 78.956 30.0813 79.5651 30.2986C80.0952 30.4876 80.5124 30.9048 80.7014 31.4349C80.9187 32.044 80.6133 32.96 80.0026 34.7921L74.4243 51.527C74.2504 52.0487 74.1635 52.3096 74.0153 52.5263C73.884 52.7182 73.7182 52.884 73.5263 53.0153C73.3096 53.1635 73.0487 53.2504 72.527 53.4243L55.7921 59.0026C53.96 59.6133 53.044 59.9187 52.4349 59.7014C51.9048 59.5124 51.4876 59.0952 51.2986 58.5651C51.0813 57.956 51.3867 57.04 51.9974 55.2079L57.5757 38.473C57.7496 37.9513 57.8365 37.6904 57.9847 37.4737C58.116 37.2818 58.2818 37.116 58.4737 36.9847C58.6904 36.8365 58.9513 36.7496 59.473 36.5757L76.2079 30.9974Z" stroke="white" stroke-opacity="0.5" stroke-width="4" stroke-linecap="round" stroke-linejoin="round"/>
<path d="M10.3047 33.8789C9.60156 33.8789 8.9375 33.7487 8.3125 33.4883C7.70052 33.2148 7.16667 32.8503 6.71094 32.3945C6.25521 31.9388 5.89062 31.4049 5.61719 30.793C5.35677 30.168 5.22656 29.5039 5.22656 28.8008C5.22656 28.0977 5.35677 27.4401 5.61719 26.8281C5.89062 26.2031 6.25521 25.6628 6.71094 25.207C7.16667 24.7383 7.70052 24.3737 8.3125 24.1133C8.9375 23.8398 9.60156 23.7031 10.3047 23.7031C11.0078 23.7031 11.6654 23.8398 12.2773 24.1133C12.9023 24.3737 13.4427 24.7383 13.8984 25.207C14.3672 25.6628 14.7318 26.2031 14.9922 26.8281C15.2656 27.4401 15.4023 28.0977 15.4023 28.8008C15.4023 29.5039 15.2656 30.168 14.9922 30.793C14.7318 31.4049 14.3672 31.9388 13.8984 32.3945C13.4427 32.8503 12.9023 33.2148 12.2773 33.4883C11.6654 33.7487 11.0078 33.8789 10.3047 33.8789ZM6.18359 53.2344V41.3398L1.06641 36.9648L15.3047 36.3789V53.2344L20.5977 58H0.890625L6.18359 53.2344ZM25.2656 40.3633H21.9062V37.3359C22.8307 37.3359 23.6966 37.2057 24.5039 36.9453C25.3112 36.6719 26.0534 36.3073 26.7305 35.8516C27.4206 35.3958 28.0326 34.8685 28.5664 34.2695C29.1133 33.6576 29.5755 33.0195 29.9531 32.3555C30.3307 31.6784 30.6172 30.9948 30.8125 30.3047C31.0208 29.6016 31.125 28.9245 31.125 28.2734H34.9727V36.3789H44.5625V40.3633H34.9727V49.1328C34.9727 50.3438 35.1159 51.3073 35.4023 52.0234C35.7018 52.7396 36.0794 53.2799 36.5352 53.6445C37.0039 54.0091 37.5117 54.2435 38.0586 54.3477C38.6185 54.4518 39.1589 54.5039 39.6797 54.5039C41.0078 54.5039 42.056 54.1263 42.8242 53.3711C43.6055 52.6029 43.9961 51.431 43.9961 49.8555C43.9961 49.7383 43.9961 49.6146 43.9961 49.4844C43.9961 49.3542 43.9831 49.2174 43.957 49.0742L47.3164 50.0703C47.3555 50.4219 47.375 50.7539 47.375 51.0664C47.375 52.0169 47.2253 52.8698 46.9258 53.625C46.6263 54.3802 46.2161 55.0443 45.6953 55.6172C45.1745 56.1771 44.556 56.6589 43.8398 57.0625C43.1367 57.4661 42.3815 57.7917 41.5742 58.0391C40.7669 58.2865 39.9271 58.4688 39.0547 58.5859C38.1823 58.7031 37.3164 58.7617 36.457 58.7617C34.7513 58.7617 33.2083 58.5924 31.8281 58.2539C30.4479 57.9154 29.2695 57.375 28.293 56.6328C27.3294 55.8906 26.5807 54.9336 26.0469 53.7617C25.526 52.5768 25.2656 51.1445 25.2656 49.4648V40.3633ZM50.8711 41.3789H70.5586V46.1055H50.8711V41.3789ZM75.3047 47.4531C75.3047 45.7604 75.5846 44.1979 76.1445 42.7656C76.7174 41.3203 77.5247 40.0703 78.5664 39.0156C79.6211 37.9609 80.8841 37.1341 82.3555 36.5352C83.8268 35.9232 85.474 35.6172 87.2969 35.6172C88.2344 35.6172 89.1458 35.7018 90.0312 35.8711C90.9167 36.0273 91.75 36.2812 92.5312 36.6328C93.3255 36.9714 94.0482 37.4141 94.6992 37.9609C95.3633 38.5078 95.9427 39.1719 96.4375 39.9531V32.0234L91.3203 27.6484L105.754 27.0625V53.2344L111.047 58H96.4375V54.4258C95.513 55.8971 94.3086 56.9909 92.8242 57.707C91.3529 58.4102 89.7057 58.7617 87.8828 58.7617C85.6693 58.7617 83.7682 58.4557 82.1797 57.8438C80.5911 57.2318 79.2891 56.4115 78.2734 55.3828C77.2578 54.3411 76.5091 53.1367 76.0273 51.7695C75.5456 50.4023 75.3047 48.9635 75.3047 47.4531ZM85.5781 47.1992C85.5781 48.2669 85.7083 49.2044 85.9688 50.0117C86.2422 50.819 86.6198 51.4961 87.1016 52.043C87.5833 52.5768 88.1562 52.9805 88.8203 53.2539C89.4844 53.5273 90.2135 53.6641 91.0078 53.6641C91.6719 53.6641 92.3229 53.5469 92.9609 53.3125C93.612 53.0781 94.1914 52.707 94.6992 52.1992C95.2201 51.6784 95.6367 51.0078 95.9492 50.1875C96.2747 49.3672 96.4375 48.3711 96.4375 47.1992C96.4375 45.9883 96.2812 44.9661 95.9688 44.1328C95.6693 43.2865 95.2656 42.6029 94.7578 42.082C94.263 41.5482 93.6901 41.1641 93.0391 40.9297C92.388 40.6823 91.7109 40.5586 91.0078 40.5586C90.2135 40.5586 89.4844 40.7018 88.8203 40.9883C88.1562 41.2747 87.5833 41.7044 87.1016 42.2773C86.6198 42.8372 86.2422 43.5339 85.9688 44.3672C85.7083 45.1875 85.5781 46.1315 85.5781 47.1992ZM113.273 52.9609C113.273 51.9193 113.488 51.0208 113.918 50.2656C114.348 49.4974 114.927 48.8464 115.656 48.3125C116.385 47.7656 117.238 47.3229 118.215 46.9844C119.191 46.6458 120.227 46.3854 121.32 46.2031C122.414 46.0078 123.534 45.8776 124.68 45.8125C125.839 45.7344 126.965 45.6953 128.059 45.6953C128.671 45.6953 129.315 45.7083 129.992 45.7344C130.682 45.7474 131.372 45.7669 132.062 45.793C132.036 44.8555 131.952 44.0221 131.809 43.293C131.678 42.5508 131.451 41.9323 131.125 41.4375C130.812 40.9297 130.37 40.5456 129.797 40.2852C129.237 40.0117 128.514 39.875 127.629 39.875C127.056 39.875 126.49 39.9466 125.93 40.0898C125.37 40.2331 124.862 40.4609 124.406 40.7734C123.951 41.0859 123.56 41.4896 123.234 41.9844C122.922 42.4661 122.72 43.0586 122.629 43.7617L114.797 42.6875C114.797 41.8021 114.973 41.0143 115.324 40.3242C115.689 39.6211 116.184 39.0091 116.809 38.4883C117.434 37.9544 118.169 37.5052 119.016 37.1406C119.875 36.776 120.793 36.4831 121.77 36.2617C122.759 36.0404 123.788 35.8776 124.855 35.7734C125.936 35.6693 127.01 35.6172 128.078 35.6172C129.367 35.6172 130.598 35.6758 131.77 35.793C132.954 35.8971 134.055 36.0924 135.07 36.3789C136.086 36.6654 137.004 37.0495 137.824 37.5312C138.658 38.013 139.367 38.625 139.953 39.3672C140.539 40.1094 140.988 40.9948 141.301 42.0234C141.626 43.0521 141.789 44.25 141.789 45.6172V52.4922C141.789 53.5339 142.043 54.263 142.551 54.6797C143.072 55.0964 143.775 55.3047 144.66 55.3047V57.5508C144.543 57.668 144.341 57.7982 144.055 57.9414C143.781 58.0716 143.417 58.1953 142.961 58.3125C142.518 58.4427 141.991 58.5469 141.379 58.625C140.767 58.7161 140.064 58.7617 139.27 58.7617C138.306 58.7617 137.44 58.7096 136.672 58.6055C135.904 58.5143 135.233 58.3451 134.66 58.0977C134.1 57.8633 133.632 57.5378 133.254 57.1211C132.876 56.7044 132.59 56.1771 132.395 55.5391C131.743 56.112 131.008 56.6003 130.188 57.0039C129.367 57.4076 128.495 57.7396 127.57 58C126.659 58.2604 125.715 58.4492 124.738 58.5664C123.775 58.6966 122.824 58.7617 121.887 58.7617C121.262 58.7617 120.617 58.7292 119.953 58.6641C119.289 58.599 118.638 58.4818 118 58.3125C117.362 58.1562 116.757 57.9414 116.184 57.668C115.611 57.3815 115.109 57.0234 114.68 56.5938C114.25 56.1641 113.905 55.6497 113.645 55.0508C113.397 54.4518 113.273 53.7552 113.273 52.9609ZM123.371 52.1016C123.371 52.4531 123.462 52.7721 123.645 53.0586C123.827 53.3451 124.074 53.5859 124.387 53.7812C124.699 53.9766 125.064 54.1263 125.48 54.2305C125.897 54.3346 126.34 54.3867 126.809 54.3867C127.29 54.3867 127.824 54.3346 128.41 54.2305C128.996 54.1133 129.549 53.9245 130.07 53.6641C130.604 53.4036 131.06 53.0651 131.438 52.6484C131.815 52.2188 132.03 51.6979 132.082 51.0859V49.0938C131.9 49.0807 131.724 49.0742 131.555 49.0742C131.398 49.0742 131.249 49.0742 131.105 49.0742C129.712 49.0742 128.527 49.1458 127.551 49.2891C126.574 49.4193 125.773 49.6146 125.148 49.875C124.536 50.1354 124.087 50.4544 123.801 50.832C123.514 51.2096 123.371 51.6328 123.371 52.1016Z" fill="white"/>
</svg>
