<svg xmlns="http://www.w3.org/2000/svg" width="16" height="20" viewBox="0 0 16 20" fill="none">
  <path fill-rule="evenodd" clip-rule="evenodd" d="M8 19L8.708 19.706C8.61509 19.7993 8.50468 19.8733 8.38309 19.9238C8.26151 19.9743 8.13115 20.0003 7.9995 20.0003C7.86785 20.0003 7.73749 19.9743 7.61591 19.9238C7.49432 19.8733 7.38391 19.7993 7.291 19.706L7.285 19.699L7.268 19.682L7.206 19.619C6.85349 19.2559 6.50678 18.8872 6.166 18.513C5.3104 17.5755 4.49113 16.6054 3.71 15.605C2.818 14.455 1.906 13.155 1.213 11.871C0.535 10.612 0 9.248 0 8C0 3.461 3.592 0 8 0C12.408 0 16 3.461 16 8C16 9.248 15.465 10.612 14.787 11.87C14.094 13.156 13.183 14.455 12.29 15.605C11.1974 17.0046 10.0304 18.3446 8.794 19.619L8.732 19.682L8.715 19.699L8.709 19.705L8 19ZM8 11C8.79565 11 9.55871 10.6839 10.1213 10.1213C10.6839 9.55871 11 8.79565 11 8C11 7.20435 10.6839 6.44129 10.1213 5.87868C9.55871 5.31607 8.79565 5 8 5C7.20435 5 6.44129 5.31607 5.87868 5.87868C5.31607 6.44129 5 7.20435 5 8C5 8.79565 5.31607 9.55871 5.87868 10.1213C6.44129 10.6839 7.20435 11 8 11Z" fill="#00664F"/>
</svg>