<svg width="44" height="44" viewBox="0 0 44 44" fill="none" xmlns="http://www.w3.org/2000/svg">
<circle cx="22" cy="22" r="22" fill="#00664F"/>
<path d="M22 32C27.5228 32 32 27.5228 32 22C32 16.4771 27.5228 12 22 12C16.4771 12 12 16.4771 12 22C12 27.5228 16.4771 32 22 32Z" stroke="white" stroke-width="2" stroke-linecap="round" stroke-linejoin="round"/>
<path d="M24.7221 18.266C25.2107 18.1032 25.4549 18.0217 25.6174 18.0797C25.7587 18.1301 25.87 18.2413 25.9204 18.3827C25.9783 18.5451 25.8969 18.7894 25.734 19.2779L24.2465 23.7405C24.2001 23.8797 24.1769 23.9492 24.1374 24.007C24.1024 24.0582 24.0582 24.1024 24.007 24.1374C23.9492 24.1769 23.8797 24.2001 23.7405 24.2465L19.2779 25.734C18.7893 25.8969 18.545 25.9783 18.3826 25.9204C18.2412 25.87 18.13 25.7587 18.0796 25.6174C18.0217 25.4549 18.1031 25.2107 18.2659 24.7221L19.7535 20.2595C19.7999 20.1203 19.8231 20.0508 19.8626 19.993C19.8976 19.9419 19.9418 19.8976 19.993 19.8626C20.0508 19.8231 20.1203 19.7999 20.2595 19.7535L24.7221 18.266Z" stroke="white" stroke-width="2" stroke-linecap="round" stroke-linejoin="round"/>
</svg>
