<svg xmlns="http://www.w3.org/2000/svg" width="24" height="24" viewBox="0 0 24 24" fill="none">
  <path d="M12.44 9.12695L11.032 14.762L15.962 21.101M10.328 18.284L8.21497 21.1" stroke="black" stroke-width="2" stroke-linecap="round" stroke-linejoin="round"/>
  <path d="M8.21497 13.353C8.21497 9.409 11.032 9.127 12.441 9.127H13.849C14.084 10.301 15.117 12.79 17.371 13.353M13 7C13.5304 7 14.0391 6.78929 14.4142 6.41421C14.7893 6.03914 15 5.53043 15 5C15 4.46957 14.7893 3.96086 14.4142 3.58579C14.0391 3.21071 13.5304 3 13 3C12.4695 3 11.9608 3.21071 11.5858 3.58579C11.2107 3.96086 11 4.46957 11 5C11 5.53043 11.2107 6.03914 11.5858 6.41421C11.9608 6.78929 12.4695 7 13 7Z" stroke="black" stroke-width="2" stroke-linecap="round" stroke-linejoin="round"/>
</svg>